<svg width="30" height="30" viewBox="0 0 30 30" fill="none" xmlns="http://www.w3.org/2000/svg">
<path d="M16.9276 20.7021C16.576 21.0529 16.0991 21.25 15.602 21.25C15.1048 21.25 14.628 21.0529 14.2763 20.7021L6.77633 13.2172C6.43479 12.8643 6.2458 12.3916 6.25007 11.901C6.25434 11.4103 6.45154 10.941 6.79918 10.5941C7.14682 10.2471 7.61709 10.0503 8.10871 10.0461C8.60033 10.0418 9.07396 10.2304 9.42759 10.5713L15.602 16.7332L21.7763 10.5713C21.9493 10.3925 22.1562 10.25 22.385 10.1519C22.6137 10.0539 22.8597 10.0022 23.1087 10.0001C23.3577 9.99791 23.6046 10.0453 23.835 10.1393C24.0654 10.2334 24.2748 10.3724 24.4508 10.5481C24.6269 10.7238 24.7661 10.9327 24.8604 11.1627C24.9547 11.3926 25.0021 11.639 24.9999 11.8875C24.9978 12.136 24.946 12.3815 24.8478 12.6098C24.7495 12.8381 24.6067 13.0446 24.4276 13.2172L16.9276 20.7021Z" fill="black"/>
</svg>
