<svg width="40" height="40" viewBox="0 0 40 40" fill="none" xmlns="http://www.w3.org/2000/svg">
<rect x="0.605957" y="0.609375" width="38.7879" height="38.7879" stroke="black"/>
<path d="M10.0001 6.96993L6.65666 10.3134C6.46913 10.5009 6.36377 10.7553 6.36377 11.0205V32.8305C6.36377 33.3828 6.81148 33.8305 7.36377 33.8305H21.1638M27.8789 23.0305V6.75781C27.8789 6.20553 27.4312 5.75781 26.8789 5.75781H12.6789C12.1266 5.75781 11.6789 6.20553 11.6789 6.75781V10.5154C11.6789 11.0677 11.2312 11.5154 10.6789 11.5154H7.87892" stroke="black" stroke-miterlimit="10" stroke-linecap="round"/>
<line x1="10.9092" y1="16.4688" x2="16.9698" y2="16.4688" stroke="black"/>
<line x1="10.9092" y1="22.5312" x2="16.9698" y2="22.5312" stroke="black"/>
<line x1="10.9092" y1="19.5" x2="20.0001" y2="19.5" stroke="black"/>
<path d="M30.8763 28.1758C30.7608 28.1758 30.6701 28.0851 30.6701 27.9697C30.6701 25.8093 28.9138 24.0529 26.7534 24.0529C24.593 24.0529 22.8366 25.8093 22.8366 27.9697C22.8366 28.0851 22.7459 28.1758 22.6305 28.1758C22.515 28.1758 22.4243 28.0851 22.4243 27.9697C22.4243 25.5825 24.3662 23.6406 26.7534 23.6406C29.1405 23.6406 31.0824 25.5825 31.0824 27.9697C31.0824 28.0851 30.9917 28.1758 30.8763 28.1758Z" fill="#DC2F34"/>
<path d="M30.9011 28.6126C30.8599 28.6126 30.8146 28.6002 30.7816 28.5754L29.3138 27.52C29.2231 27.454 29.1984 27.3262 29.2685 27.2314C29.3386 27.1365 29.4623 27.1159 29.5571 27.186L30.8558 28.1178L31.7422 26.8232C31.8082 26.7284 31.936 26.7078 32.0308 26.7696C32.1257 26.8356 32.1504 26.9634 32.0844 27.0582L31.0784 28.526C31.0455 28.5713 31.0001 28.6043 30.9424 28.6126C30.9259 28.6126 30.9135 28.6126 30.9011 28.6126Z" fill="#DC2F34"/>
<path d="M22.4665 29.5585C22.5819 29.5585 22.6726 29.6493 22.6726 29.7647C22.6726 31.9251 24.429 33.6815 26.5894 33.6815C28.7498 33.6815 30.5062 31.9251 30.5062 29.7647C30.5062 29.6493 30.5969 29.5585 30.7123 29.5585C30.8278 29.5585 30.9185 29.6493 30.9185 29.7647C30.9185 32.1519 28.9766 34.0938 26.5894 34.0938C24.2022 34.0938 22.2603 32.1519 22.2603 29.7647C22.2603 29.6493 22.351 29.5585 22.4665 29.5585Z" fill="#DC2F34"/>
<path d="M22.4416 29.1218C22.4829 29.1218 22.5282 29.1342 22.5612 29.1589L24.0289 30.2144C24.1196 30.2804 24.1444 30.4082 24.0743 30.503C24.0042 30.5978 23.8805 30.6184 23.7857 30.5484L22.487 29.6166L21.6005 30.9112C21.5346 31.006 21.4068 31.0266 21.3119 30.9648C21.2171 30.8988 21.1924 30.771 21.2583 30.6762L22.2643 29.2084C22.2973 29.1631 22.3427 29.1301 22.4004 29.1218C22.4169 29.1218 22.4293 29.1218 22.4416 29.1218Z" fill="#DC2F34"/>
</svg>
