<svg width="40" height="40" viewBox="0 0 40 40" fill="none" xmlns="http://www.w3.org/2000/svg">
<rect x="0.605957" y="0.609375" width="38.7879" height="38.7879" stroke="black"/>
<path d="M10.9087 21.1378C10.9087 21.1378 10.9087 12.0469 19.3935 12.0469C27.8784 12.0469 28.5026 21.1378 28.5026 21.1378C28.5026 21.1378 27.8784 18.7135 26.0602 18.7135C24.4905 18.7135 23.3026 20.5135 23.0057 21.0105C22.9754 21.059 22.9148 21.0469 22.8966 20.9923C22.7451 20.4651 22.0481 18.6287 19.7087 18.6287C17.436 18.6287 16.8844 20.356 16.7632 20.9438C16.7511 20.9984 16.6784 21.0044 16.6481 20.956C16.3814 20.3923 15.4541 18.7135 13.939 18.7135C12.1208 18.7135 10.9087 19.9257 10.9087 21.1378Z" fill="#FFED00" stroke="black" stroke-miterlimit="10" stroke-linecap="round" stroke-linejoin="round"/>
<path d="M19.7026 10.4609V11.8003" stroke="black" stroke-miterlimit="10" stroke-linecap="round" stroke-linejoin="round"/>
<path d="M7.27246 22.3534V12.3413L19.7028 6.0625L32.1755 12.0504V22.3534C32.1755 22.3534 26.0785 34.008 19.7028 34.008C13.327 34.008 7.27246 22.3534 7.27246 22.3534Z" stroke="black" stroke-miterlimit="10" stroke-linecap="round" stroke-linejoin="round"/>
<path d="M18.1816 25.1562H19.5513V28.7926H18.1816H20.8544" stroke="#123E8C" stroke-miterlimit="10"/>
<circle cx="19.3938" cy="23.0324" r="0.712121" stroke="#123E8C"/>
</svg>
