<svg width="40" height="41" viewBox="0 0 40 41" fill="none" xmlns="http://www.w3.org/2000/svg">
<path d="M19.1795 0.605469L1.2121 9.69218V30.2282L20.0299 39.9994L38.7879 30.2282V10.4979L19.1795 0.605469Z" stroke="black" stroke-miterlimit="10" stroke-linecap="round"/>
<path d="M16.0848 19.7022C16.0848 19.7022 13.2787 19.1688 13.2787 17.8355C13.2787 17.8355 12.4787 17.8355 12.4787 17.0355C12.4787 16.2355 13.012 16.2355 13.012 16.2355C13.012 16.2355 12.7878 12.4961 16.2363 12.4961C19.6848 12.4961 19.4726 16.1022 19.4726 16.1022C19.4726 16.1022 19.9514 16.2355 19.9514 16.7688C19.9514 17.3022 19.6848 17.8355 19.1514 17.8355C19.1514 17.8355 18.0908 19.7022 16.0848 19.7022Z" stroke="black" stroke-miterlimit="10"/>
<path d="M10.6061 27.886H23.3333V23.2618C23.3333 23.2618 23.3333 20.6133 20.9091 20.6133C18.4848 20.6133 11.9636 20.6133 11.9636 20.6133C11.9636 20.6133 10 20.6133 10 23.0375C10 25.4618 10 27.886 10 27.886H10.9273" fill="#FFED00"/>
<path d="M10.6061 27.886H23.3333V23.2618C23.3333 23.2618 23.3333 20.6133 20.9091 20.6133C18.4848 20.6133 11.9636 20.6133 11.9636 20.6133C11.9636 20.6133 10 20.6133 10 23.0375C10 25.4618 10 27.886 10 27.886H10.9273" stroke="black" stroke-miterlimit="10"/>
<path d="M24.9973 17.9941C24.9973 17.9941 22.829 17.582 22.829 16.5517C22.829 16.5517 22.2108 16.5517 22.2108 15.9335C22.2108 15.3153 22.6229 15.3153 22.6229 15.3153C22.6229 15.3153 22.445 12.4258 25.1144 12.4258C27.7838 12.4258 27.6152 15.2123 27.6152 15.2123C27.6152 15.2123 27.9852 15.3153 27.9852 15.7274C27.9852 16.1396 27.7791 16.5517 27.367 16.5517C27.367 16.5517 26.5475 17.9941 24.9973 17.9941Z" stroke="black" stroke-miterlimit="10"/>
<path d="M30.5943 24.3151V20.7419C30.5943 20.7419 30.5943 18.6953 28.721 18.6953C26.8477 18.6953 21.8086 18.6953 21.8086 18.6953C21.8086 18.6953 20.2913 18.6953 20.2913 20.5686" stroke="black" stroke-miterlimit="10" stroke-linecap="round"/>
<path d="M25.1597 21.7109C24.8835 21.7109 24.6597 21.9348 24.6597 22.2109C24.6597 22.4871 24.8835 22.7109 25.1597 22.7109V21.7109ZM14.1919 24.8877C13.9966 25.0829 13.9966 25.3995 14.1919 25.5948L17.3738 28.7768C17.5691 28.972 17.8857 28.972 18.0809 28.7768C18.2762 28.5815 18.2762 28.2649 18.0809 28.0697L15.2525 25.2412L18.0809 22.4128C18.2762 22.2176 18.2762 21.901 18.0809 21.7057C17.8857 21.5104 17.5691 21.5104 17.3738 21.7057L14.1919 24.8877ZM25.1597 22.7109H27.9115V21.7109H25.1597V22.7109ZM27.9115 22.7109C27.998 22.7109 28.1667 22.7494 28.3091 22.881C28.4368 22.9992 28.5909 23.2366 28.5909 23.7261H29.5909C29.5909 23.0035 29.3518 22.4833 28.9881 22.1469C28.6391 21.824 28.2182 21.7109 27.9115 21.7109V22.7109ZM28.5909 23.7261C28.5909 24.8253 28.1517 24.7412 28.3046 24.7412V25.7412C28.9817 25.7412 29.5909 25.0511 29.5909 23.7261H28.5909ZM28.3046 24.7412H14.5454V25.7412H28.3046V24.7412Z" fill="#DC2F34"/>
</svg>
