<svg width="40" height="40" viewBox="0 0 40 40" fill="none" xmlns="http://www.w3.org/2000/svg">
<circle cx="20" cy="20" r="20" transform="matrix(-1 0 0 1 40 0)" fill="#DC2F34"/>
<path d="M20.3536 10.6464C20.1583 10.4512 19.8417 10.4512 19.6464 10.6464L16.4645 13.8284C16.2692 14.0237 16.2692 14.3403 16.4645 14.5355C16.6597 14.7308 16.9763 14.7308 17.1716 14.5355L20 11.7071L22.8284 14.5355C23.0237 14.7308 23.3403 14.7308 23.5355 14.5355C23.7308 14.3403 23.7308 14.0237 23.5355 13.8284L20.3536 10.6464ZM20.5 19L20.5 11H19.5L19.5 19H20.5Z" fill="white"/>
<path d="M12.4258 23.1953V22.3438H16.9336V23.1953H15.1914V28H14.1758V23.1953H12.4258ZM22.5273 25.1719C22.5273 27 21.418 28.0781 19.9336 28.0781C18.4492 28.0781 17.3398 26.9922 17.3398 25.1719C17.3398 23.3438 18.4492 22.2656 19.9336 22.2656C21.418 22.2656 22.5273 23.3438 22.5273 25.1719ZM21.5039 25.1719C21.5039 23.8828 20.8555 23.1797 19.9336 23.1797C19.0117 23.1797 18.3633 23.8828 18.3633 25.1719C18.3633 26.4609 19.0117 27.1641 19.9336 27.1641C20.8555 27.1641 21.5039 26.4609 21.5039 25.1719ZM23.4336 28V22.3438H25.5586C26.8555 22.3438 27.5508 23.1328 27.5508 24.2188C27.5508 25.3047 26.8477 26.0859 25.543 26.0859H24.4492V28H23.4336ZM24.4492 25.25H25.4023C26.168 25.25 26.5117 24.8203 26.5117 24.2188C26.5117 23.6094 26.168 23.1953 25.4023 23.1953H24.4492V25.25Z" fill="white"/>
</svg>
