<svg width="128" height="16" viewBox="0 0 128 16" fill="none" xmlns="http://www.w3.org/2000/svg">
<g clip-path="url(#clip0_9269_932)">
<path d="M93.867 14.4316C92.6357 14.4316 91.4204 14.4316 90.1944 14.4316C90.1944 14.3877 90.1944 14.3485 90.1944 14.3069C90.1944 11.5813 90.197 8.85577 90.1917 6.1279C90.1917 5.73061 90.1706 5.33332 90.1336 4.93835C90.1019 4.57571 89.9857 4.23155 89.7399 3.93127C89.444 3.57095 89.0239 3.38385 88.5325 3.32611C88.012 3.26374 87.5232 3.35151 87.0819 3.61252C86.7358 3.81809 86.5403 4.11144 86.4029 4.44636C86.3184 4.65193 86.2972 4.86212 86.2893 5.07463C86.2761 5.40262 86.2655 5.7283 86.2655 6.05629C86.2629 8.80958 86.2655 11.5606 86.2655 14.3138C86.2655 14.3508 86.2655 14.3877 86.2655 14.4316C85.0396 14.4316 83.8215 14.4316 82.5929 14.4316C82.5903 14.397 82.5876 14.3623 82.5876 14.3277C82.5876 11.5698 82.5876 8.81189 82.5876 6.05398C82.5876 5.43957 82.6088 4.82748 82.7145 4.22C82.8545 3.42774 83.1848 2.70939 83.7687 2.08574C84.4002 1.41359 85.1558 0.882335 86.0806 0.545104C86.8996 0.247139 87.7557 0.140889 88.6382 0.194014C89.9143 0.270238 90.9897 0.746057 91.9567 1.44362C91.9831 1.4621 92.0096 1.48057 92.0386 1.49905C92.1813 1.39973 92.3213 1.30041 92.4666 1.20802C93.2514 0.695241 94.1153 0.346461 95.0903 0.226351C96.1498 0.0970023 97.167 0.23559 98.1367 0.628257C99.1724 1.04633 99.9809 1.69308 100.602 2.5246C100.948 2.98888 101.151 3.50858 101.265 4.05369C101.4 4.70506 101.424 5.36566 101.426 6.02626C101.429 8.79803 101.426 11.5721 101.426 14.3439C101.426 14.3693 101.426 14.397 101.426 14.4293C100.203 14.4293 98.9822 14.4293 97.7483 14.4293C97.7483 14.3831 97.7483 14.3416 97.7483 14.2977C97.7483 11.3434 97.7483 8.38919 97.7483 5.43496C97.7483 5.11389 97.7377 4.79283 97.64 4.4787C97.3995 3.7026 96.6069 3.3723 96.023 3.31918C95.5236 3.27298 95.0612 3.36537 94.6464 3.62176C94.3611 3.79731 94.2025 4.05138 94.0836 4.33087C93.9489 4.645 93.9066 4.97069 93.8908 5.30099C93.8775 5.57585 93.8696 5.85072 93.8696 6.12559C93.867 8.85346 93.8696 11.5836 93.8696 14.3115C93.867 14.3508 93.867 14.3877 93.867 14.4316Z" fill="#003D92"/>
<path d="M86.2708 14.3693C86.2708 15.2585 85.4465 15.9792 84.4292 15.9792C83.412 15.9792 82.5876 15.2585 82.5876 14.3693" fill="#D1122C"/>
<path d="M101.426 14.3693C101.426 15.2585 100.602 15.9792 99.5846 15.9792C98.5674 15.9792 97.743 15.2585 97.743 14.3693" fill="#D1122C"/>
<path d="M93.8459 14.3854C93.8459 15.2654 93.0295 15.9791 92.0228 15.9791C91.0161 15.9791 90.1997 15.2654 90.1997 14.3854" fill="#D1122C"/>
<path d="M118.286 14.1544C118.286 15.0252 119.092 15.7296 120.088 15.7296C121.084 15.7296 121.89 15.0252 121.89 14.1544C121.89 9.09359 121.89 5.33785 121.89 0.270142C120.685 0.270142 119.488 0.270142 118.286 0.270142C118.286 5.33554 118.286 9.09359 118.286 14.1544Z" fill="#D1122C"/>
<path d="M124.175 14.1544C124.175 15.0252 124.981 15.7296 125.977 15.7296C126.973 15.7296 127.779 15.0252 127.779 14.1544C127.779 9.09359 127.779 5.33785 127.779 0.270142C126.574 0.270142 125.377 0.270142 124.175 0.270142C124.175 5.33554 124.175 9.09359 124.175 14.1544Z" fill="#D1122C"/>
<path d="M116.307 9.49084C116.243 8.79328 116.069 8.1165 115.747 7.47207C115.282 6.54353 114.584 5.77667 113.617 5.20846C112.626 4.6287 111.527 4.3215 110.341 4.25913C109.199 4.19908 108.1 4.36077 107.062 4.79963C105.648 5.39556 104.605 6.31024 103.944 7.55291C103.387 8.60156 103.231 9.70103 103.413 10.8398C103.543 11.6297 103.862 12.3642 104.356 13.0341C105.559 14.6602 107.263 15.5494 109.479 15.658C110.172 15.6903 110.851 15.6072 111.522 15.4732V12.2903C110.864 12.4982 110.195 12.6299 109.487 12.5398C109.036 12.482 108.613 12.3619 108.24 12.1286C107.559 11.7013 107.157 11.1239 107.046 10.394C106.948 9.75184 107.062 9.14668 107.44 8.58539C108.14 7.53905 109.551 7.13022 110.795 7.50441C111.786 7.80237 112.394 8.41216 112.6 9.32453C112.727 9.88812 112.748 10.454 112.748 11.0245C112.75 12.4636 112.748 12.6668 112.748 14.1058C112.748 14.1428 112.748 14.1797 112.748 14.2213C112.753 14.2213 112.756 14.2213 112.761 14.2213C112.801 15.0621 113.588 15.7319 114.56 15.7319C115.53 15.7319 116.32 15.0598 116.36 14.2213C116.365 14.2213 116.368 14.2213 116.373 14.2213C116.373 14.1751 116.373 14.1335 116.373 14.092C116.373 12.6021 116.378 12.3481 116.37 10.8582C116.365 10.4009 116.346 9.94356 116.307 9.49084Z" fill="#D1122C"/>
<path d="M0.799805 7.99885C0.799805 3.30995 4.73661 0 10.3274 0C15.9182 0 19.855 3.30995 19.855 7.99885C19.855 12.6901 15.9182 16 10.3274 16C4.73661 16 0.799805 12.6901 0.799805 7.99885ZM13.9894 7.99885C13.9894 6.02627 12.486 4.66811 10.3274 4.66811C8.1714 4.66811 6.64159 6.02627 6.64159 7.99885C6.64159 9.97142 8.1714 11.3319 10.3274 11.3319C12.4834 11.3319 13.9894 9.97373 13.9894 7.99885Z" fill="#003D92"/>
<path d="M34.8942 0.328003V4.71201H30.6826V15.672H24.8646V4.71201H20.6504V0.328003H34.8942Z" fill="#003D92"/>
<path d="M35.6737 7.99885C35.6737 3.30764 39.6105 0 45.2013 0C50.7921 0 54.7289 3.30995 54.7289 7.99885C54.7289 12.6901 50.7921 16 45.2013 16C39.6105 16 35.6737 12.6901 35.6737 7.99885ZM48.8607 7.99885C48.8607 6.02627 47.3573 4.66811 45.2013 4.66811C43.0453 4.66811 41.5155 6.02627 41.5155 7.99885C41.5155 9.97142 43.0453 11.3319 45.2013 11.3319C47.3573 11.3319 48.8607 9.97373 48.8607 7.99885Z" fill="#003D92"/>
<path d="M66.6185 7.82562L71.9345 15.1477V15.6743H65.4903L61.8811 10.2163V15.6743H56.0631V0.328003H61.8811V5.82995L65.3159 0.328003H71.4589V0.854638L66.6185 7.82562Z" fill="#003D92"/>
<path d="M72.9174 15.672V0.328003H78.4342V15.672H72.9174Z" fill="#003D92"/>
</g>
<defs>
<clipPath id="clip0_9269_932">
<rect width="127.2" height="16" fill="white" transform="translate(0.800049)"/>
</clipPath>
</defs>
</svg>
