<svg width="40" height="41" viewBox="0 0 40 41" fill="none" xmlns="http://www.w3.org/2000/svg">
<path d="M19.1795 0.605469L1.2121 9.69218V30.2282L20.0299 39.9994L38.7879 30.2282V10.4979L19.1795 0.605469Z" stroke="black" stroke-miterlimit="10" stroke-linecap="round"/>
<path d="M11.8423 19.0928C11.8423 19.0928 9.03627 18.5594 9.03627 17.2261C9.03627 17.2261 8.23627 17.2261 8.23627 16.4261C8.23627 15.6261 8.7696 15.6261 8.7696 15.6261C8.7696 15.6261 8.54536 11.8867 11.9938 11.8867C15.4423 11.8867 15.2302 15.4928 15.2302 15.4928C15.2302 15.4928 15.709 15.6261 15.709 16.1594C15.709 16.6928 15.4423 17.2261 14.909 17.2261C14.909 17.2261 13.8484 19.0928 11.8423 19.0928Z" stroke="black" stroke-miterlimit="10"/>
<path d="M6.36363 27.2766H19.0909V22.6524C19.0909 22.6524 19.0909 20.0039 16.6667 20.0039C14.2424 20.0039 7.7212 20.0039 7.7212 20.0039C7.7212 20.0039 5.75757 20.0039 5.75757 22.4281C5.75757 24.8524 5.75757 27.2766 5.75757 27.2766H6.68484" fill="#FFED00"/>
<path d="M6.36363 27.2766H19.0909V22.6524C19.0909 22.6524 19.0909 20.0039 16.6667 20.0039C14.2424 20.0039 7.7212 20.0039 7.7212 20.0039C7.7212 20.0039 5.75757 20.0039 5.75757 22.4281C5.75757 24.8524 5.75757 27.2766 5.75757 27.2766H6.68484" stroke="black" stroke-miterlimit="10"/>
<path d="M26.9879 19.0225C26.9879 19.0225 24.1818 18.4891 24.1818 17.1558C24.1818 17.1558 23.3818 17.1558 23.3818 16.3558C23.3818 15.5558 23.9152 15.5558 23.9152 15.5558C23.9152 15.5558 23.6849 11.8164 27.1394 11.8164C30.594 11.8164 30.3758 15.4225 30.3758 15.4225C30.3758 15.4225 30.8546 15.5558 30.8546 16.0891C30.8546 16.6225 30.5879 17.1558 30.0546 17.1558C30.0546 17.1558 28.994 19.0225 26.9879 19.0225Z" stroke="black" stroke-miterlimit="10"/>
<path d="M34.2306 27.2063V22.5821C34.2306 22.5821 34.2306 19.9336 31.8064 19.9336C29.3821 19.9336 22.8609 19.9336 22.8609 19.9336C22.8609 19.9336 20.8973 19.9336 20.8973 22.3578C20.8973 24.7821 20.8973 27.2063 20.8973 27.2063" stroke="black" stroke-miterlimit="10" stroke-linecap="round"/>
<path d="M32.1025 25.1037L29.7145 27.4677C31.2145 27.5157 32.5345 28.7037 32.5345 30.3357C32.5345 32.0517 31.2385 33.3597 29.0905 33.3597C27.7105 33.3597 26.5345 32.8437 25.8145 31.8957L26.7625 30.9237C27.2065 31.5837 28.0945 32.0397 29.0065 32.0397C30.1945 32.0397 31.0585 31.4397 31.0585 30.3117C31.0585 29.1957 30.0625 28.6077 28.9705 28.6077C28.5985 28.6077 28.2145 28.6437 27.8785 28.7757L27.4465 27.9957L29.9545 25.3557H26.2225V24.1197H32.1025V25.1037Z" fill="black"/>
<path d="M6.06061 29.1953C5.78447 29.1953 5.56061 29.4192 5.56061 29.6953C5.56061 29.9715 5.78447 30.1953 6.06061 30.1953V29.1953ZM25.8081 30.0489C26.0034 29.8536 26.0034 29.537 25.8081 29.3418L22.6261 26.1598C22.4309 25.9645 22.1143 25.9645 21.919 26.1598C21.7238 26.355 21.7238 26.6716 21.919 26.8669L24.7474 29.6953L21.919 32.5237C21.7238 32.719 21.7238 33.0356 21.919 33.2308C22.1143 33.4261 22.4309 33.4261 22.6261 33.2308L25.8081 30.0489ZM6.06061 30.1953H25.4545V29.1953H6.06061V30.1953Z" fill="#DC2F34"/>
</svg>
