<svg width="39" height="24" viewBox="0 0 39 24" fill="none" xmlns="http://www.w3.org/2000/svg">
<path d="M15.4957 13.316C14.5663 13.9507 14.1016 15.0012 14.1016 16.4673C14.1016 18.6665 16.8049 22.4257 19.2427 22.4257C21.6804 22.4257 23.0942 22.4257 25.4802 22.4257C27.8662 22.4257 29.3155 20.3399 29.3155 18.6665C29.3155 16.4168 29.3155 14.1671 29.3155 11.9174C29.3155 10.9461 28.5296 10.158 27.5583 10.1553C26.5906 10.1526 25.8038 10.9349 25.8011 11.9026V11.9076V11.9625" fill="#FFED00"/>
<path d="M15.4957 13.316C14.5663 13.9507 14.1016 15.0012 14.1016 16.4673C14.1016 18.6665 16.8049 22.4257 19.2427 22.4257C21.6804 22.4257 23.0942 22.4257 25.4802 22.4257C27.8662 22.4257 29.3155 20.3399 29.3155 18.6665C29.3155 16.4168 29.3155 14.1671 29.3155 11.9174C29.3155 10.9461 28.5296 10.158 27.5583 10.1553C26.5906 10.1526 25.8038 10.9349 25.8011 11.9026V11.9076V11.9625" stroke="black" stroke-width="1.5" stroke-linecap="round"/>
<path d="M17.1875 13.8335L17.6875 11.8335L21.6875 9.8335L26.1875 12.3335L17.1875 13.8335Z" fill="#FFED00"/>
<path d="M16.25 14.5416V2.74262C16.25 1.7802 17.0302 1 17.9926 1C18.955 1 19.7352 1.7802 19.7352 2.74262V11.4014" fill="#FFED00"/>
<path d="M16.25 14.5416V2.74262C16.25 1.7802 17.0302 1 17.9926 1C18.955 1 19.7352 1.7802 19.7352 2.74262V11.4014" stroke="black" stroke-width="1.5" stroke-linecap="round"/>
<path d="M19.7344 11.5921V9.32119C19.7344 8.48226 20.4144 7.80225 21.2533 7.80225C22.0922 7.80225 22.7723 8.48226 22.7723 9.32119V11.8234" fill="#FFED00"/>
<path d="M19.7344 11.5921V9.32119C19.7344 8.48226 20.4144 7.80225 21.2533 7.80225C22.0922 7.80225 22.7723 8.48226 22.7723 9.32119V11.8234" stroke="black" stroke-width="1.5" stroke-linecap="round" stroke-linejoin="round"/>
<path d="M22.7656 11.9488V10.4047C22.7656 9.56575 23.4457 8.88574 24.2846 8.88574C25.1234 8.88574 25.8035 9.56575 25.8035 10.4047V12.1357" fill="#FFED00"/>
<path d="M22.7656 11.9488V10.4047C22.7656 9.56575 23.4457 8.88574 24.2846 8.88574C25.1234 8.88574 25.8035 9.56575 25.8035 10.4047V12.1357" stroke="black" stroke-width="1.5" stroke-linecap="round" stroke-linejoin="round"/>
<path d="M38.2525 6.31589C38.2786 6.28978 38.2786 6.26367 38.2786 6.23756C38.2786 6.23756 38.2786 6.23756 38.2786 6.21145C38.2786 6.18534 38.3047 6.15924 38.3047 6.13313V6.10702C38.3047 6.08091 38.3047 6.08091 38.3047 6.0548V6.02869C38.3047 6.00258 38.3047 5.97647 38.3047 5.95036C38.3047 5.92425 38.2786 5.89814 38.2786 5.87203V5.84592C38.2786 5.81981 38.2525 5.81981 38.2525 5.7937C38.2525 5.7937 38.2525 5.76759 38.2264 5.76759C38.2002 5.74148 38.2002 5.71537 38.1741 5.68926L35.1715 2.71276C34.9888 2.52999 34.7016 2.52999 34.5188 2.71276C34.336 2.89553 34.336 3.18273 34.5188 3.3655L36.7381 5.58482H28.7747C28.5136 5.58482 28.3047 5.7937 28.3047 6.0548C28.3047 6.31589 28.5136 6.52477 28.7747 6.52477H36.7381L34.5188 8.74409C34.336 8.92686 34.336 9.21407 34.5188 9.39683C34.6232 9.50127 34.7277 9.52738 34.8582 9.52738C34.9888 9.52738 35.0932 9.47516 35.1976 9.39683L38.2264 6.36811C38.2264 6.36811 38.2264 6.342 38.2525 6.31589Z" fill="black"/>
<path d="M0.765625 6.30615C0.739583 6.28011 0.739583 6.25407 0.739583 6.22803C0.739583 6.22803 0.739583 6.22803 0.739583 6.20199C0.713542 6.17594 0.713542 6.17594 0.6875 6.1499V6.12386C0.6875 6.09782 0.6875 6.09782 0.6875 6.07178V6.04574C0.6875 6.01969 0.6875 5.99365 0.6875 5.96761C0.6875 5.94157 0.713542 5.91553 0.713542 5.88949V5.86344C0.713542 5.8374 0.739583 5.8374 0.739583 5.81136C0.739583 5.81136 0.739583 5.78532 0.765625 5.78532C0.791667 5.75928 0.791667 5.73324 0.817708 5.70719L3.83854 2.7124C4.02083 2.53011 4.30729 2.53011 4.48958 2.7124C4.67188 2.89469 4.67188 3.18115 4.48958 3.36344L2.27604 5.57699H10.2187C10.4792 5.57699 10.6875 5.78532 10.6875 6.04574C10.6875 6.30615 10.4792 6.51449 10.2187 6.51449H2.27604L4.48958 8.72803C4.67188 8.91032 4.67188 9.19678 4.48958 9.37907C4.38542 9.48324 4.28125 9.50928 4.15104 9.50928C4.02083 9.50928 3.91667 9.45719 3.8125 9.37907L0.817708 6.38428C0.791667 6.35824 0.791667 6.33219 0.765625 6.30615Z" fill="black"/>
</svg>
