<svg width="40" height="40" viewBox="0 0 40 40" fill="none" xmlns="http://www.w3.org/2000/svg">
<rect x="0.605957" y="0.609375" width="38.7879" height="38.7879" stroke="black"/>
<mask id="mask0_2883_70121" style="mask-type:alpha" maskUnits="userSpaceOnUse" x="6" y="5" width="27" height="30">
<path d="M7.27246 22.3534V12.3413L19.7028 6.0625L32.1755 12.0504V22.3534C32.1755 22.3534 26.0785 34.008 19.7028 34.008C13.327 34.008 7.27246 22.3534 7.27246 22.3534Z" fill="white" stroke="black" stroke-miterlimit="10" stroke-linecap="round" stroke-linejoin="round"/>
</mask>
<g mask="url(#mask0_2883_70121)">
<path d="M19.365 21.5096C19.365 21.5096 15.5932 20.7929 15.5932 18.9966C15.5932 18.9966 14.5181 18.9966 14.5181 17.9215C14.5181 16.8464 15.2348 16.8464 15.2348 16.8464C15.2348 16.8464 14.9302 11.8203 19.5666 11.8203C24.2029 11.8203 23.9162 16.6627 23.9162 16.6627C23.9162 16.6627 24.5613 16.8419 24.5613 17.5587C24.5613 18.2754 24.2029 18.9921 23.4862 18.9921C23.4862 18.9966 22.0572 21.5096 19.365 21.5096Z" stroke="black" stroke-miterlimit="10"/>
<path d="M10.2088 36.9839H29.9996V28.0875C29.9996 28.0875 29.1037 22.7344 25.847 22.7344C24.7003 22.7344 20.9867 22.7344 20.9867 22.7344L20.4223 23.1017C19.9519 23.4063 19.3427 23.3884 18.8947 23.0569L18.4557 22.7344H13.8239C13.8239 22.7344 9.39355 24.5262 9.39355 27.7829C9.39355 31.0395 9.39355 36.9884 9.39355 36.9884H12.4307" fill="#FFED00"/>
<path d="M10.2088 36.9839H29.9996V28.0875C29.9996 28.0875 29.1037 22.7344 25.847 22.7344C24.7003 22.7344 20.9867 22.7344 20.9867 22.7344L20.4223 23.1017C19.9519 23.4063 19.3427 23.3884 18.8947 23.0569L18.4557 22.7344H13.8239C13.8239 22.7344 9.39355 24.5262 9.39355 27.7829C9.39355 31.0395 9.39355 36.9884 9.39355 36.9884H12.4307" stroke="black" stroke-miterlimit="10" stroke-linecap="round" stroke-linejoin="round"/>
<path d="M7.27246 22.3534V12.3413L19.7028 6.0625L32.1755 12.0504V22.3534C32.1755 22.3534 26.0785 34.008 19.7028 34.008C13.327 34.008 7.27246 22.3534 7.27246 22.3534Z" stroke="black" stroke-miterlimit="10" stroke-linecap="round" stroke-linejoin="round"/>
<path d="M15.597 29.9103C14.205 29.9103 13.209 28.9083 13.209 27.5583C13.209 26.2023 14.205 25.2003 15.597 25.2003C16.389 25.2003 17.109 25.5663 17.481 26.1243L16.911 26.5323C16.635 26.1303 16.137 25.8663 15.597 25.8663C14.637 25.8663 13.965 26.5503 13.965 27.5583C13.965 28.5483 14.637 29.2443 15.597 29.2443C16.161 29.2443 16.671 28.9683 16.947 28.5423L17.529 28.9383C17.157 29.5263 16.407 29.9103 15.597 29.9103ZM18.2478 25.2903H20.1738C21.1998 25.2903 21.8478 25.8723 21.8478 26.7903C21.8478 27.6843 21.2478 28.3563 20.0838 28.3563H18.9978V29.8203H18.2478V25.2903ZM18.9978 27.7083H20.0658C20.6898 27.7083 21.0678 27.3543 21.0678 26.8203C21.0678 26.2863 20.7198 25.9383 20.0838 25.9383H18.9978V27.7083ZM24.8086 29.9103C23.4106 29.9103 22.3906 28.9203 22.3906 27.5523C22.3906 26.1843 23.4106 25.2003 24.8086 25.2003C26.2006 25.2003 27.2206 26.1843 27.2206 27.5523C27.2206 28.9203 26.2006 29.9103 24.8086 29.9103ZM24.8086 29.2383C25.7806 29.2383 26.4646 28.5543 26.4646 27.5523C26.4646 26.5623 25.7926 25.8723 24.8086 25.8723C23.8246 25.8723 23.1466 26.5503 23.1466 27.5523C23.1466 28.5663 23.8486 29.2383 24.8086 29.2383Z" fill="black"/>
</g>
</svg>
