<svg width="40" height="40" viewBox="0 0 40 40" fill="none" xmlns="http://www.w3.org/2000/svg">
<rect x="0.605957" y="0.609375" width="38.7879" height="38.7879" stroke="black"/>
<path d="M10.0001 6.96993L6.65666 10.3134C6.46913 10.5009 6.36377 10.7553 6.36377 11.0205V32.8305C6.36377 33.3828 6.81148 33.8305 7.36377 33.8305H23.7459C24.031 33.8305 24.3026 33.7088 24.4923 33.496L27.6254 29.9816C27.7887 29.7984 27.8789 29.5616 27.8789 29.3162V6.75781C27.8789 6.20553 27.4312 5.75781 26.8789 5.75781H12.6789C12.1266 5.75781 11.6789 6.20553 11.6789 6.75781V10.5154C11.6789 11.0677 11.2312 11.5154 10.6789 11.5154H7.87892" stroke="black" stroke-miterlimit="10" stroke-linecap="round"/>
<path d="M15.7758 17.6326L25.4788 12.4932C25.6546 12.4023 25.8607 12.3962 26.0364 12.4871L35.1213 17.0326C35.3273 17.1356 35.4546 17.3477 35.4546 17.572V26.8932C35.4546 26.8932 29 35.2447 25.6182 35.5174C25.5091 35.5235 25.4 35.4992 25.3031 35.4507C24.0667 34.8023 15.4546 30.2023 15.4546 26.5659V18.172C15.4546 17.9477 15.5758 17.7416 15.7758 17.6326Z" fill="#123E8C" stroke="black" stroke-miterlimit="10" stroke-linecap="round" stroke-linejoin="round"/>
<rect x="30.9092" y="23.0312" width="5.45455" height="2.42424" rx="1" fill="#FFED00" stroke="black"/>
<rect x="14.5454" y="23.0312" width="6.06061" height="2.42424" rx="1" fill="#FFED00" stroke="black"/>
<path d="M26.0605 29.6982C29.073 29.6982 31.515 27.2561 31.515 24.2436C31.515 21.2311 29.073 18.7891 26.0605 18.7891C23.048 18.7891 20.606 21.2311 20.606 24.2436C20.606 27.2561 23.048 29.6982 26.0605 29.6982Z" fill="#FFED00" stroke="black" stroke-miterlimit="10" stroke-linecap="round" stroke-linejoin="round"/>
<path d="M23.9222 21.1475H26.4902C27.8582 21.1475 28.7222 21.9235 28.7222 23.1475C28.7222 24.3395 27.9222 25.2355 26.3702 25.2355H24.9222V27.1875H23.9222V21.1475ZM24.9222 24.3715H26.3462C27.1782 24.3715 27.6822 23.8995 27.6822 23.1875C27.6822 22.4755 27.2182 22.0115 26.3702 22.0115H24.9222V24.3715Z" fill="black"/>
</svg>
