<svg width="41" height="40" viewBox="0 0 41 40" fill="none" xmlns="http://www.w3.org/2000/svg">
<rect x="1.21191" y="0.609375" width="38.7879" height="38.7879" stroke="black"/>
<path d="M19.365 16.6659C19.365 16.6659 15.5932 15.9492 15.5932 14.1528C15.5932 14.1528 14.5181 14.1528 14.5181 13.0777C14.5181 12.0026 15.2348 12.0026 15.2348 12.0026C15.2348 12.0026 14.9302 6.97656 19.5666 6.97656C24.2029 6.97656 23.9162 11.819 23.9162 11.819C23.9162 11.819 24.5613 11.9982 24.5613 12.7149C24.5613 13.4316 24.2029 14.1484 23.4862 14.1484C23.4862 14.1528 22.0572 16.6659 19.365 16.6659Z" stroke="black" stroke-miterlimit="10"/>
<path d="M10.2088 32.1402H29.9996V23.2437C29.9996 23.2437 29.1037 17.8906 25.847 17.8906C24.7003 17.8906 20.9867 17.8906 20.9867 17.8906L20.4223 18.258C19.9519 18.5626 19.3427 18.5446 18.8947 18.2132L18.4557 17.8906H13.8239C13.8239 17.8906 9.39355 19.6825 9.39355 22.9391C9.39355 26.1958 9.39355 32.1446 9.39355 32.1446H12.4307" fill="#FFED00"/>
<path d="M10.2088 32.1402H29.9996V23.2437C29.9996 23.2437 29.1037 17.8906 25.847 17.8906C24.7003 17.8906 20.9867 17.8906 20.9867 17.8906L20.4223 18.258C19.9519 18.5626 19.3427 18.5446 18.8947 18.2132L18.4557 17.8906H13.8239C13.8239 17.8906 9.39355 19.6825 9.39355 22.9391C9.39355 26.1958 9.39355 32.1446 9.39355 32.1446H12.4307" stroke="black" stroke-miterlimit="10" stroke-linecap="round" stroke-linejoin="round"/>
<path d="M20.0544 27.1688C20.0544 27.1688 17.6041 26.7029 17.6041 25.5382C17.6041 25.5382 16.9053 25.5382 16.9053 24.8394C16.9053 24.1406 17.3711 24.1406 17.3711 24.1406C17.3711 24.1406 17.174 20.875 20.1888 20.875C23.2036 20.875 23.0154 24.0241 23.0154 24.0241C23.0154 24.0241 23.432 24.1406 23.432 24.6065C23.432 25.0724 23.1991 25.5382 22.7332 25.5382C22.7332 25.5382 21.8059 27.1688 20.0544 27.1688Z" fill="white" stroke="black" stroke-miterlimit="10"/>
<path d="M15.2659 31.6305H26.3842V29.3863C26.3842 29.3863 26.3842 27.0703 24.2654 27.0703C22.1465 27.0703 15.5526 27.0703 15.5526 27.0703C15.5526 27.0703 13.8369 27.0703 13.8369 29.1892C13.8369 31.308 13.8369 31.6305 13.8369 31.6305H15.5436" fill="#123E8C"/>
<path d="M15.2659 31.6305H26.3842V29.3863C26.3842 29.3863 26.3842 27.0703 24.2654 27.0703C22.1465 27.0703 15.5526 27.0703 15.5526 27.0703C15.5526 27.0703 13.8369 27.0703 13.8369 29.1892C13.8369 31.308 13.8369 31.6305 13.8369 31.6305H15.5436" stroke="black" stroke-miterlimit="10"/>
</svg>
