<svg width="50" height="50" viewBox="0 0 50 50" fill="none" xmlns="http://www.w3.org/2000/svg">
<rect width="50" height="50" rx="25" fill="#123E8C"/>
<path d="M32.242 29.9349C32.1234 30.37 31.7282 30.6719 31.2772 30.6719H19.348C18.8898 30.6719 18.4902 30.3604 18.3783 29.916L15.7872 19.625H33.7439C34.4032 19.625 34.8821 20.252 34.7086 20.8881L32.242 29.9349Z" fill="white"/>
<path d="M11.6328 15.2554H13.7518C14.1952 15.2554 14.5857 15.5474 14.711 15.9727L15.7872 19.625M15.7872 19.625L18.3783 29.916C18.4902 30.3604 18.8898 30.6719 19.348 30.6719H31.2772C31.7282 30.6719 32.1234 30.37 32.242 29.9349L34.7086 20.8881C34.8821 20.252 34.4032 19.625 33.7439 19.625H15.7872Z" stroke="white" stroke-width="2.5" stroke-linecap="round"/>
<circle cx="20.55" cy="36.4133" r="1.95626" fill="white" stroke="white"/>
<circle cx="29.8547" cy="36.4133" r="1.95626" fill="white" stroke="white"/>
</svg>
