<svg width="40" height="40" viewBox="0 0 40 40" fill="none" xmlns="http://www.w3.org/2000/svg">
<rect x="0.605957" y="0.609375" width="38.7879" height="38.7879" stroke="black"/>
<path d="M10.0001 6.96993L6.65666 10.3134C6.46913 10.5009 6.36377 10.7553 6.36377 11.0205V32.8305C6.36377 33.3828 6.81148 33.8305 7.36377 33.8305H23.7459C24.031 33.8305 24.3026 33.7088 24.4923 33.496L27.6254 29.9816C27.7887 29.7984 27.8789 29.5616 27.8789 29.3162V6.75781C27.8789 6.20553 27.4312 5.75781 26.8789 5.75781H12.6789C12.1266 5.75781 11.6789 6.20553 11.6789 6.75781V10.5154C11.6789 11.0677 11.2312 11.5154 10.6789 11.5154H7.87892" stroke="black" stroke-miterlimit="10" stroke-linecap="round"/>
<line x1="10.9092" y1="16.4688" x2="16.9698" y2="16.4688" stroke="black"/>
<line x1="10.9092" y1="22.5312" x2="16.9698" y2="22.5312" stroke="black"/>
<line x1="10.9092" y1="19.5" x2="20.0001" y2="19.5" stroke="black"/>
<path d="M20.9092 27.8205L21.8183 23.0326L33.3334 10.9114C33.3334 10.9114 35.1516 9.6993 36.9698 11.5175C38.788 13.3357 36.9698 15.2629 36.9698 15.2629L25.2061 27.0266L20.9092 27.8205Z" fill="#FFED00" stroke="black" stroke-miterlimit="10"/>
<path d="M21.6124 25.4531L21.2124 27.5622L23.1821 27.1986L21.6124 25.4531Z" fill="black"/>
</svg>
