<svg width="50" height="60" viewBox="0 0 50 60" fill="none" xmlns="http://www.w3.org/2000/svg">
<g clip-path="url(#clip0_2048_53674)">
<path d="M42.6577 48.9849C41.6486 48.9849 40.8262 49.8043 40.8262 50.8196C40.8262 51.8305 41.6441 52.6544 42.6577 52.6544C43.6668 52.6544 44.4892 51.835 44.4892 50.8196C44.4892 49.8087 43.6712 48.9849 42.6577 48.9849ZM42.6577 52.3337C41.8264 52.3337 41.1507 51.6568 41.1507 50.8241C41.1507 49.9913 41.8264 49.3144 42.6577 49.3144C43.489 49.3144 44.1646 49.9913 44.1646 50.8241C44.1646 51.6568 43.489 52.3337 42.6577 52.3337Z" fill="#DD3134"/>
<path d="M43.5067 51.6601L43.4889 51.2548C43.4756 50.9431 43.36 50.8896 43.24 50.8362C43.3734 50.7516 43.5334 50.6314 43.5334 50.3018C43.5334 49.8298 43.1911 49.7051 42.8488 49.7051H41.8842V51.9317H42.1642V50.9743H42.8488C43.1866 50.9743 43.2222 51.188 43.2222 51.3706C43.2222 51.4552 43.2311 51.7937 43.2711 51.9273H43.6179V51.8783C43.5245 51.8293 43.5112 51.7848 43.5067 51.6601ZM42.8132 50.7204H42.1598V49.9634H42.8621C42.9999 49.9634 43.2355 49.9901 43.2355 50.3374C43.24 50.6625 43.0222 50.7204 42.8132 50.7204Z" fill="#DD3134"/>
<path d="M24.9649 53.548C20.035 53.4723 15.2473 51.9716 11.122 49.2106C10.4864 48.8098 4.24506 44.6816 1.59562 35.8196C1.40891 35.2318 -0.618176 28.347 4.05835 23.4929C4.47177 23.0164 6.5122 20.8343 9.84178 19.917C10.0996 18.5365 10.6508 16.4479 11.8111 14.3593C13.6826 11.0015 17.4834 7.0025 24.9827 6.99805H25.0138L25.0272 7.01141V6.99805C32.5265 7.0025 36.3273 11.0015 38.1944 14.3548C39.359 16.4434 39.9103 18.532 40.1636 19.9125C43.4977 20.8299 45.5381 23.012 45.9515 23.4885C50.6281 28.3426 48.601 35.2273 48.4143 35.8151C45.7604 44.6771 39.5235 48.8098 38.8878 49.2061C34.7581 51.9671 29.9704 53.4634 25.0405 53.5436H25.0094L24.9649 53.548Z" fill="white"/>
<path d="M44.4222 24.8873C44.4222 24.8873 42.1818 22.1397 38.3143 21.6498C38.3143 21.6498 37.5986 9.07824 25.0271 9.06934H25.0182H24.996H24.9871C12.4111 9.07824 11.6954 21.6498 11.6954 21.6498C7.82795 22.1397 5.59193 24.8873 5.59193 24.8873C1.56442 29.0155 3.57373 35.2011 3.57373 35.2011C6.11203 43.7024 12.2466 47.4654 12.2466 47.4654C17.1766 50.7697 21.9687 51.4244 25.0004 51.4689H25.0049H25.0093C28.041 51.4199 32.8332 50.7697 37.7675 47.4654C37.7675 47.4654 43.8977 43.7024 46.436 35.2056C46.436 35.2011 48.4497 29.0155 44.4222 24.8873Z" fill="#DD3134"/>
<path d="M42.8264 25.8413C42.8264 25.8413 40.8882 23.6636 36.5762 23.2227C36.5762 23.2227 36.3406 10.7447 25.0049 10.7402H25.0004H24.996C13.6603 10.7447 13.4291 23.2227 13.4291 23.2227C9.11711 23.6636 7.17893 25.8413 7.17893 25.8413C3.51594 29.5998 5.44523 34.9482 5.44523 34.9482C7.78794 42.8038 13.4247 46.1393 13.4247 46.1393C17.9723 49.1853 22.2798 49.7954 24.996 49.7998H25.0004H25.0049C27.7254 49.7954 32.033 49.1808 36.5806 46.1393C36.5806 46.1393 42.2173 42.8038 44.5645 34.9482C44.5645 34.9482 46.4938 29.5998 42.8264 25.8413Z" fill="white"/>
<path d="M38.1633 27.0028C36.8208 26.936 32.9311 27.0028 32.9311 27.0028C32.9311 27.0028 29.9438 30.9262 25.0717 30.9707C20.2351 31.0152 17.2123 27.0028 17.2123 27.0028C17.2123 27.0028 13.3226 26.936 11.9801 27.0028C1.53348 27.5105 8.93057 48.2939 25.0673 48.0935C41.4662 47.8842 48.4899 27.5061 38.1633 27.0028Z" fill="#DD3134"/>
<path d="M9.93506 36.0506C9.93506 34.0155 11.4243 32.5815 13.5403 32.5815C15.6563 32.5815 17.1455 34.0155 17.1455 36.0506C17.1455 38.0858 15.6563 39.5197 13.5403 39.5197C11.4243 39.5197 9.93506 38.0858 9.93506 36.0506ZM14.9272 36.0506C14.9272 35.1956 14.3582 34.6078 13.5403 34.6078C12.7223 34.6078 12.1444 35.1956 12.1444 36.0506C12.1444 36.9057 12.7223 37.4979 13.5403 37.4979C14.3582 37.4979 14.9272 36.9057 14.9272 36.0506Z" fill="white"/>
<path d="M22.8399 32.7222V34.6237H21.244V39.3753H19.0435V34.6237H17.4476V32.7222H22.8399Z" fill="white"/>
<path d="M23.1333 36.0506C23.1333 34.0155 24.6225 32.5815 26.7385 32.5815C28.8545 32.5815 30.3437 34.0155 30.3437 36.0506C30.3437 38.0858 28.8545 39.5197 26.7385 39.5197C24.6225 39.5197 23.1333 38.0858 23.1333 36.0506ZM28.1255 36.0506C28.1255 35.1956 27.5564 34.6078 26.7385 34.6078C25.9205 34.6078 25.3426 35.1956 25.3426 36.0506C25.3426 36.9057 25.9205 37.4979 26.7385 37.4979C27.5564 37.4979 28.1255 36.9057 28.1255 36.0506Z" fill="white"/>
<path d="M34.8469 35.9731L36.8607 39.1482V39.3753H34.4202L33.0554 37.0062V39.3753H30.855V32.7222H33.0554V35.1091L34.3535 32.7222H36.6784V32.9493L34.8469 35.9731Z" fill="white"/>
<path d="M37.2297 39.3753V32.7222H39.3191V39.3753H37.2297Z" fill="white"/>
<path d="M32.7976 21.8379C34.5713 18.3465 30.406 11.3282 23.1601 13.5904C23.1601 13.5904 21.2975 12.3034 19.7727 13.6973C19.7727 13.6973 18.5102 14.7661 19.2615 16.5385C18.7414 17.0862 18.3057 17.7052 17.959 18.3821C17.9368 18.4267 17.9145 18.4712 17.8923 18.5113C17.8656 18.5603 17.8434 18.6137 17.8212 18.6627C17.7723 18.7696 17.7278 18.872 17.6834 18.9789C17.6789 18.9833 17.6789 18.9922 17.6745 18.9967C17.6211 19.1214 17.5767 19.2505 17.5322 19.3752C17.5322 19.3797 17.5322 19.3797 17.5278 19.3841C17.2788 20.1056 17.141 20.8403 17.1099 21.5618C17.1055 21.6687 17.1055 21.7711 17.1055 21.8735C17.1055 21.9002 17.1055 21.9225 17.1055 21.9492C17.1277 29.8359 28.3967 31.978 31.7174 25.5697C32.2909 25.1288 34.2779 23.4143 32.7976 21.8379ZM30.8061 23.9398C29.957 27.1284 26.543 27.7607 25.0093 27.7607C21.5242 27.7607 18.6702 25.4317 18.448 21.9937L18.4435 22.0026C18.4435 21.9759 18.4435 21.9492 18.4435 21.9225C18.4346 21.4772 18.488 21.0496 18.5858 20.6399C18.8436 19.442 19.4304 18.3643 20.2528 17.5182C20.3328 17.5271 20.4973 17.5449 20.4973 17.5449C22.2488 17.7008 23.1423 17.0328 23.1423 17.0328C25.9117 18.6672 26.2363 16.7122 26.2363 16.7122C24.8804 16.8502 25.4672 16.0798 25.4672 16.0798C25.8006 15.6122 26.6141 15.7725 26.6141 15.7725C30.815 16.4628 29.4769 19.2772 29.4769 19.2772C30.7572 19.9898 30.166 20.591 30.166 20.591C29.3125 20.3594 29.2102 20.68 29.3213 21.0586C29.4325 21.4415 29.7392 21.7176 30.0326 21.9893C30.2415 22.1852 30.3793 22.4524 30.4594 22.6662C30.4994 22.7508 30.526 22.8399 30.5483 22.9334C30.5572 22.9646 30.5616 22.9957 30.5661 23.0269C30.5927 23.1828 30.6061 23.3342 30.6238 23.4321C30.6683 23.4767 30.7261 23.4321 30.7794 23.3698C31.0106 22.8176 31.9308 22.1897 31.9308 23.1249C31.9352 24.2471 30.8061 23.9398 30.8061 23.9398Z" fill="#DD3134"/>
<path d="M28.2944 23.5852C28.2588 23.5095 28.1521 23.4872 28.0366 23.5496C27.8765 23.6342 27.7298 23.7455 27.5742 23.839C27.3253 23.9815 26.6896 24.3066 26.3606 24.3066C26.8274 23.5273 26.6763 22.8148 26.1695 22.7168C25.7783 22.6411 25.5649 22.8504 25.1248 23.2735C24.7336 23.652 24.2669 23.9414 23.7912 23.9147C23.2444 23.8836 22.8088 23.5406 22.4132 23.1977C21.9686 22.8148 21.3907 22.2982 20.7728 22.2626C20.595 22.2537 20.4661 22.414 20.8262 22.5966C21.7864 23.0775 22.3598 24.0394 23.2889 24.5604C24.3913 25.175 25.6538 25.1839 26.823 24.7742C27.4186 24.5694 28.4589 23.9281 28.2944 23.5852ZM25.4938 24.3066C25.1871 24.3868 24.7692 24.3066 24.7692 24.3066C24.7692 24.3066 25.5738 24.1997 25.9517 23.4516C25.8316 24.0617 25.4938 24.3066 25.4938 24.3066Z" fill="#DD3134"/>
<path d="M21.2618 18.4455C21.5464 18.3787 21.8353 18.3832 22.0842 18.5435C22.3332 18.7038 22.4665 18.8062 22.5332 18.6281C22.5866 18.49 22.5199 18.2273 22.4132 18.0981C22.1376 17.7775 21.4663 17.3099 20.3105 18.4544C20.3105 18.4544 19.5104 19.3094 20.4395 18.7929C20.6751 18.6593 20.964 18.5168 21.2618 18.4455Z" fill="#DD3134"/>
<path d="M27.7255 17.1042L26.6897 17.5584C25.9962 17.9013 26.4052 18.3778 26.4052 18.3778C26.9831 18.9612 27.4587 18.4847 27.4587 18.4847C28.2278 17.6208 29.0635 18.0305 29.0635 18.0305C28.8235 16.4006 27.7255 17.1042 27.7255 17.1042Z" fill="#DD3134"/>
<path d="M25.9029 19.8638C25.3116 19.8683 24.8315 20.3492 24.836 20.9415C24.836 21.5382 25.325 22.0147 25.9162 22.0103C26.5119 22.0058 26.9875 21.5249 26.9786 20.9281C26.9742 20.3403 26.4941 19.8593 25.9029 19.8638Z" fill="#DD3134"/>
<path d="M23.6446 20.8107C23.6979 20.7127 23.7246 20.6014 23.7113 20.49C23.6801 20.1783 23.5512 19.5994 22.9911 19.5415C22.9911 19.5415 23.6401 20.4945 22.7422 20.6504C22.7422 20.6504 21.8131 20.8686 22.8755 21.5009C22.8755 21.5009 23.858 22.0442 23.8535 21.452C23.8535 21.443 23.2489 21.5232 23.6446 20.8107Z" fill="#DD3134"/>
<path d="M22.2976 20.3503C22.2887 20.2701 22.262 20.1944 22.2353 20.1232C22.1953 20.0118 22.1509 19.9005 22.0886 19.7936C22.0042 19.6556 21.8975 19.5353 21.7641 19.4418C21.5819 19.3127 21.3685 19.2459 21.1462 19.237C21.0484 19.2325 20.9506 19.237 20.8528 19.2548C20.7417 19.2726 20.6217 19.2949 20.5061 19.326C20.4127 19.3527 20.3238 19.3795 20.2438 19.4151C20.0438 19.5042 20.2482 19.5442 20.3683 19.5576C20.475 19.571 20.5772 19.571 20.6839 19.5665C20.8973 19.562 21.4529 19.5442 21.7686 19.9406C21.7597 19.9317 21.7463 19.9272 21.7374 19.9183C21.2885 19.6333 20.8217 19.7535 20.5061 19.9005C20.2971 19.9985 20.1327 20.1143 20.1593 20.1989C20.1905 20.3057 20.4661 20.2078 20.5905 20.1632C20.7817 20.0875 21.004 20.0831 21.2084 20.1143C21.5552 20.1677 21.8619 20.377 22.2042 20.4527C22.2309 20.4572 22.2664 20.4572 22.2798 20.4349C22.302 20.4082 22.302 20.3725 22.2976 20.3503Z" fill="#DD3134"/>
</g>
<defs>
<clipPath id="clip0_2048_53674">
<rect width="48.01" height="46.55" fill="white" transform="translate(1 7)"/>
</clipPath>
</defs>
</svg>
