<svg width="30" height="30" viewBox="0 0 30 30" fill="none" xmlns="http://www.w3.org/2000/svg">
<path d="M14.3224 10.5479C14.674 10.1971 15.1509 10 15.648 10C16.1452 10 16.622 10.1971 16.9737 10.5479L24.4737 18.0328C24.8152 18.3857 25.0042 18.8584 24.9999 19.349C24.9957 19.8397 24.7985 20.309 24.4508 20.6559C24.1032 21.0029 23.6329 21.1997 23.1413 21.2039C22.6497 21.2082 22.176 21.0196 21.8224 20.6787L15.648 14.5168L9.47366 20.6787C9.3007 20.8575 9.09381 21 8.86505 21.0981C8.63629 21.1961 8.39025 21.2478 8.14129 21.2499C7.89233 21.2521 7.64543 21.2047 7.415 21.1107C7.18457 21.0166 6.97522 20.8776 6.79917 20.7019C6.62313 20.5262 6.4839 20.3173 6.38962 20.0873C6.29535 19.8574 6.24791 19.611 6.25007 19.3625C6.25223 19.114 6.30396 18.8685 6.40223 18.6402C6.50049 18.4119 6.64333 18.2054 6.82242 18.0328L14.3224 10.5479Z" fill="black"/>
</svg>
