<svg width="240" height="50" viewBox="0 0 240 50" fill="none" xmlns="http://www.w3.org/2000/svg">
<path d="M44.8272 45.1024C43.7402 45.1024 42.8579 45.9847 42.8579 47.0717C42.8579 48.1586 43.7402 49.041 44.8272 49.041C45.9141 49.041 46.7965 48.1586 46.7965 47.0717C46.7991 45.9847 45.9168 45.1024 44.8272 45.1024ZM44.8272 48.6955C43.9316 48.6955 43.2034 47.9699 43.2034 47.0717C43.2034 46.1761 43.9289 45.4479 44.8272 45.4479C45.7228 45.4479 46.451 46.1734 46.451 47.0717C46.451 47.9673 45.7255 48.6955 44.8272 48.6955Z" fill="#DF3333"/>
<path d="M45.7416 47.9755L45.723 47.5423C45.7097 47.2101 45.5821 47.149 45.4546 47.0932C45.5981 47.0028 45.7682 46.8726 45.7682 46.5191C45.7682 46.0115 45.3988 45.876 45.0294 45.876H43.9902V48.2678H44.2932V47.242H45.0294C45.3934 47.242 45.4307 47.4732 45.4307 47.6699C45.4307 47.7602 45.4413 48.1243 45.4838 48.2705H45.8559V48.2173C45.7602 48.1589 45.7442 48.1084 45.7416 47.9755ZM44.9975 46.9656H44.2932V46.1524H45.0506C45.2021 46.1524 45.4546 46.1816 45.4546 46.5537C45.4546 46.9045 45.218 46.9656 44.9975 46.9656Z" fill="#DF3333"/>
<path d="M25.7908 50.0002C20.4862 49.9178 15.3358 48.3073 10.8923 45.3414C10.2093 44.9109 3.49355 40.4754 0.63929 30.9559C0.43997 30.3233 -1.73926 22.9299 3.29157 17.7157C3.73805 17.2055 5.93322 14.8615 9.51566 13.8728C9.79205 12.3872 10.3847 10.1469 11.6364 7.90121C13.6482 4.30017 17.7383 0.0054983 25.8067 0.000183105H25.8413L25.8546 0.0134711V0.0028407C33.923 0.00815589 38.0131 4.30283 40.0222 7.90653C41.2739 10.1522 41.8666 12.3925 42.143 13.8755C45.7281 14.8615 47.9259 17.2055 48.3697 17.7157C53.4032 22.9299 51.2213 30.3233 51.022 30.9559C48.1677 40.4754 41.452 44.9109 40.7743 45.3414C36.3308 48.3046 31.1777 49.9151 25.8732 50.0002H25.8386H25.7908Z" fill="white"/>
<path d="M46.7248 19.2201C46.7248 19.2201 44.317 16.2702 40.1525 15.744C40.1525 15.744 39.3818 2.24075 25.852 2.23012H25.8414H25.8201H25.8095C12.2823 2.23809 11.5116 15.744 11.5116 15.744C7.34984 16.2702 4.94206 19.2201 4.94206 19.2201C0.604861 23.653 2.7708 30.2996 2.7708 30.2996C5.50281 39.4285 12.1043 43.4707 12.1043 43.4707C17.4115 47.0212 22.5646 47.7202 25.8281 47.7733C25.8308 47.7733 25.8308 47.7733 25.8334 47.7733C25.8334 47.7733 25.8361 47.7733 25.8387 47.7733C29.1023 47.7228 34.258 47.0212 39.5652 43.4707C39.5652 43.4707 46.164 39.4285 48.8934 30.2996C48.8934 30.2996 51.0593 23.653 46.7248 19.2201Z" fill="#DF3333"/>
<path d="M45.0105 20.2459C45.0105 20.2459 42.9243 17.9072 38.2868 17.4315C38.2868 17.4315 38.0343 4.02926 25.8359 4.02394C25.8333 4.02394 25.8333 4.02394 25.8306 4.02394C25.8306 4.02394 25.828 4.02394 25.8253 4.02394C13.6243 4.02926 13.3771 17.4315 13.3771 17.4315C8.73697 17.9072 6.65076 20.2459 6.65076 20.2459C2.70955 24.2801 4.78778 30.0259 4.78778 30.0259C7.30719 38.4637 13.3718 42.0462 13.3718 42.0462C18.2645 45.315 22.8993 45.9741 25.8253 45.9794C25.828 45.9794 25.828 45.9794 25.8306 45.9794C25.8306 45.9794 25.8333 45.9794 25.8359 45.9794C28.7646 45.9741 33.4021 45.315 38.2921 42.0462C38.2921 42.0462 44.3594 38.4637 46.8814 30.0259C46.8788 30.0232 48.9544 24.2801 45.0105 20.2459Z" fill="white"/>
<path d="M39.9904 21.4922C38.5473 21.4231 34.3616 21.4922 34.3616 21.4922C34.3616 21.4922 31.1485 25.7071 25.9051 25.7523C20.6989 25.8001 17.4486 21.4922 17.4486 21.4922C17.4486 21.4922 13.2629 21.4231 11.8198 21.4922C0.578214 22.0396 8.53771 44.3634 25.9051 44.1455C43.5489 43.9223 51.1044 22.0316 39.9904 21.4922Z" fill="#DF3333"/>
<path d="M34.2181 15.9433C36.1263 12.1934 31.6456 4.65115 23.8482 7.08551C23.8482 7.08551 21.8444 5.70356 20.202 7.20245C20.202 7.20245 18.8413 8.35053 19.6545 10.2534C19.0964 10.8407 18.6234 11.5078 18.2513 12.2359C18.2274 12.2838 18.2035 12.3289 18.1795 12.3768C18.153 12.4299 18.1264 12.4857 18.1025 12.5416C18.0493 12.6532 17.9988 12.7675 17.9536 12.8817C17.951 12.887 17.9483 12.895 17.9457 12.9003C17.8899 13.0359 17.8394 13.1714 17.7915 13.3069C17.7915 13.3096 17.7889 13.3123 17.7889 13.3149C17.5204 14.0883 17.3716 14.8802 17.3397 15.6536C17.3344 15.7652 17.3344 15.8768 17.3318 15.9885C17.3318 16.015 17.3291 16.0416 17.3291 16.0682V16.0655C17.353 24.5353 29.4796 26.8368 33.0541 19.9562C33.6733 19.4805 35.8127 17.6388 34.2181 15.9433ZM32.0761 18.1996C31.1645 21.6252 27.4891 22.3029 25.8361 22.3029C22.0835 22.3029 19.0114 19.8021 18.7748 16.108L18.7722 16.116C18.7722 16.0868 18.7748 16.0602 18.7748 16.031C18.7642 15.5526 18.8227 15.0902 18.929 14.6543C19.2054 13.3654 19.8405 12.212 20.7229 11.2978C20.8079 11.3084 20.986 11.3297 20.986 11.3297C22.8728 11.4971 23.8296 10.7796 23.8296 10.7796C26.8087 12.5336 27.1595 10.4341 27.1595 10.4341C25.7005 10.5829 26.333 9.7564 26.333 9.7564C26.6918 9.25411 27.5662 9.42685 27.5662 9.42685C32.0867 10.171 30.649 13.1927 30.649 13.1927C32.0256 13.9581 31.3904 14.6038 31.3904 14.6038C30.4736 14.354 30.362 14.6995 30.4815 15.1061C30.6011 15.5181 30.928 15.8131 31.2443 16.1054C31.4702 16.3153 31.6163 16.6024 31.7067 16.8336C31.7492 16.9213 31.7785 17.0196 31.8024 17.1206C31.8103 17.1551 31.8183 17.1897 31.8236 17.2216C31.8529 17.3917 31.8688 17.5511 31.8848 17.6574C31.9299 17.7053 31.9964 17.6574 32.0522 17.5883C32.302 16.9957 33.2906 16.3207 33.2906 17.3279C33.2906 18.5318 32.0761 18.1996 32.0761 18.1996Z" fill="#DF3333"/>
<path d="M29.3709 17.8196C29.331 17.7372 29.2194 17.7159 29.0918 17.7824C28.9191 17.8727 28.7623 17.995 28.5922 18.0906C28.3211 18.2448 27.6408 18.5956 27.2873 18.5956C27.7896 17.7584 27.6275 16.9931 27.0827 16.8894C26.6601 16.8097 26.4316 17.0329 25.9612 17.4847C25.5413 17.8887 25.0363 18.2023 24.5261 18.173C23.9387 18.1411 23.4683 17.7717 23.0405 17.4023C22.5621 16.9877 21.9402 16.4376 21.2758 16.4004C21.0818 16.3898 20.9489 16.5652 21.3343 16.7592C22.3681 17.2774 22.9847 18.3086 23.9866 18.8667C25.1719 19.5284 26.5325 19.5364 27.7922 19.0952C28.4274 18.8746 29.5516 18.189 29.3709 17.8196ZM26.3598 18.5956C26.0276 18.6806 25.5785 18.5982 25.5785 18.5982C25.5785 18.5982 26.4448 18.484 26.8488 17.6787C26.7239 18.3298 26.3598 18.5956 26.3598 18.5956Z" fill="#DF3333"/>
<path d="M21.8045 12.3025C22.1128 12.2308 22.4237 12.2361 22.6895 12.4062C22.9553 12.5763 23.0988 12.6879 23.1732 12.4992C23.2316 12.353 23.1599 12.0687 23.0429 11.9331C22.748 11.5876 22.0224 11.088 20.7813 12.3132C20.7813 12.3132 19.9203 13.23 20.9195 12.6746C21.1747 12.5337 21.4856 12.3769 21.8045 12.3025Z" fill="#DF3333"/>
<path d="M28.7594 10.8621L27.6459 11.3484C26.9017 11.7178 27.3402 12.2281 27.3402 12.2281C27.9648 12.8526 28.4724 12.345 28.4724 12.345C29.2989 11.4175 30.1998 11.856 30.1998 11.856C29.9394 10.11 28.7594 10.8621 28.7594 10.8621Z" fill="#DF3333"/>
<path d="M26.7954 13.8306C26.1575 13.8359 25.6446 14.3541 25.6499 14.9893C25.6526 15.6324 26.1761 16.1427 26.8113 16.14C27.4518 16.1347 27.9647 15.6165 27.9567 14.976C27.9541 14.3408 27.4332 13.8253 26.7954 13.8306Z" fill="#DF3333"/>
<path d="M24.3665 14.8405C24.4249 14.7342 24.4515 14.6146 24.4409 14.495C24.409 14.1628 24.2681 13.5356 23.6675 13.4745C23.6675 13.4745 24.3665 14.5003 23.3991 14.6651C23.3991 14.6651 22.3998 14.9016 23.5426 15.5766C23.5426 15.5766 24.6003 16.1613 24.595 15.5235C24.5924 15.5261 23.9412 15.6085 24.3665 14.8405Z" fill="#DF3333"/>
<path d="M22.9206 14.3488C22.9127 14.2637 22.8834 14.1813 22.8542 14.1043C22.809 13.982 22.7665 13.8624 22.6974 13.7508C22.607 13.602 22.4901 13.4718 22.3492 13.3708C22.1552 13.2326 21.9214 13.1608 21.6848 13.1529C21.5785 13.1475 21.4722 13.1555 21.3686 13.1715C21.249 13.1874 21.1214 13.2113 20.9965 13.2459C20.8982 13.2724 20.7999 13.3043 20.7122 13.3442C20.4969 13.4399 20.7175 13.4851 20.8477 13.4983C20.962 13.5116 21.0736 13.5116 21.1879 13.509C21.4164 13.5037 22.0144 13.4877 22.3546 13.9103C22.3439 13.9023 22.3333 13.8943 22.32 13.8864C21.8337 13.5781 21.334 13.7083 20.9965 13.8677C20.7706 13.9741 20.5952 14.0963 20.6218 14.1867C20.6537 14.2983 20.954 14.1973 21.0842 14.1468C21.2889 14.0671 21.5307 14.0618 21.7486 14.0963C22.1234 14.1548 22.4502 14.3807 22.8196 14.4577C22.8489 14.463 22.8887 14.463 22.902 14.4391C22.9259 14.4152 22.9233 14.3753 22.9206 14.3488Z" fill="#DF3333"/>
<path d="M16.7871 27.0494C14.3501 27.0494 12.3755 28.6174 12.3755 30.5521C12.3755 32.1148 13.6777 33.4463 15.4663 33.8901V35.9896H12.5801V37.1058L21.01 37.1084V35.9922H18.0946V33.8954C19.8938 33.4542 21.196 32.1254 21.196 30.5548C21.196 28.6174 19.2215 27.0494 16.7871 27.0494ZM16.7632 32.9918C15.6815 32.9918 14.8019 31.8544 14.8019 30.4591C14.8019 29.0612 15.6815 27.9238 16.7632 27.9238C17.8475 27.9238 18.7245 29.0586 18.7245 30.4591C18.7218 31.8544 17.8475 32.9918 16.7632 32.9918Z" fill="white"/>
<path d="M27.0855 32.3116L27.0881 32.3169H30.3543V31.2273H28.789V28.3252H30.3543V27.2303L26.3467 27.2276V31.5887L26.36 31.5994C26.3679 31.9927 26.6869 32.3089 27.0855 32.3116Z" fill="white"/>
<path d="M21.8071 34.2568H24.6959V36.5397C24.6906 36.5743 24.6906 36.6141 24.6906 36.646C24.6906 37.2094 25.2779 37.6665 26.0008 37.6665C26.7237 37.6665 27.311 37.2121 27.3137 36.654H27.3163V34.2489H30.4549V33.1061H21.8071V34.2568Z" fill="white"/>
<path d="M21.9164 31.5754V31.5808V31.5861C21.9218 31.9874 22.2486 32.3116 22.6499 32.3116C22.6526 32.3116 22.6526 32.3116 22.6606 32.3116L22.6632 32.3169H25.6743V31.2167H24.3694V28.3305H25.6743V27.2276H21.9111L21.9138 31.5648C21.9138 31.5701 21.9164 31.5754 21.9164 31.5754Z" fill="white"/>
<path d="M31.2552 28.3571H33.6391V34.334C33.6391 34.334 33.6391 35.4768 31.8983 35.809H31.9037C31.4705 35.8754 31.2393 36.1066 31.2393 36.4734C31.2393 36.8401 31.4625 37.1271 31.8346 37.1271L31.8399 37.1325C31.8399 37.1325 35.9777 37.3025 35.9777 34.5891V27.2117H31.2552V28.3571Z" fill="white"/>
<path d="M37.0273 36.46C37.0273 37.0208 37.5695 37.4726 38.287 37.4726C39.0046 37.4726 39.4962 37.0208 39.4962 36.46V27.0468H37.0273V36.46Z" fill="white"/>
<path d="M157.44 23.0577V25.6196C156.154 24.5752 154.82 24.0516 153.443 24.0516C151.926 24.0516 150.65 24.5805 149.611 25.6382C148.567 26.6906 148.043 27.9769 148.043 29.4997C148.043 31.0039 148.567 32.2716 149.611 33.3054C150.655 34.3392 151.936 34.8548 153.454 34.8548C154.238 34.8548 154.905 34.7299 155.452 34.4827C155.758 34.3605 156.074 34.193 156.404 33.9804C156.731 33.7705 157.079 33.5153 157.44 33.2203V35.8274C156.165 36.5264 154.828 36.8772 153.425 36.8772C151.315 36.8772 149.515 36.1623 148.024 34.7325C146.539 33.2921 145.797 31.5514 145.797 29.5157C145.797 27.6899 146.419 26.0634 147.66 24.6337C149.188 22.8823 151.168 22.0079 153.597 22.0079C154.924 22.0079 156.205 22.3588 157.44 23.0577Z" fill="#003D92"/>
<path d="M158.03 32.0297C158.03 30.7248 158.511 29.6139 159.473 28.697C160.435 27.7828 161.607 27.3231 162.992 27.3231C164.382 27.3231 165.559 27.7828 166.529 28.705C167.486 29.6272 167.962 30.7593 167.962 32.1014C167.962 33.4568 167.481 34.5916 166.519 35.5085C165.549 36.4174 164.361 36.8718 162.952 36.8718C161.557 36.8718 160.388 36.4067 159.444 35.4792C158.501 34.5677 158.03 33.4169 158.03 32.0297ZM160.228 32.0669C160.228 32.9705 160.478 33.6853 160.975 34.2115C161.485 34.7431 162.158 35.0088 162.992 35.0088C163.834 35.0088 164.504 34.7457 165.009 34.2195C165.511 33.6933 165.764 32.9917 165.764 32.112C165.764 31.2324 165.511 30.5308 165.009 30.0046C164.499 29.4731 163.826 29.2073 162.992 29.2073C162.171 29.2073 161.504 29.4731 160.993 30.0046C160.483 30.5388 160.228 31.2271 160.228 32.0669Z" fill="#003D92"/>
<path d="M168.865 27.5755H171.015V28.3834C171.411 27.9821 171.762 27.7057 172.068 27.5569C172.379 27.4027 172.751 27.3257 173.176 27.3257C173.742 27.3257 174.335 27.5064 174.954 27.8652L173.968 29.776C173.561 29.4916 173.163 29.3481 172.772 29.3481C171.6 29.3481 171.013 30.2092 171.013 31.9286V36.614H168.863V27.5755H168.865Z" fill="#003D92"/>
<path d="M177.657 41.5332H175.507V27.5755H177.657V28.5588C178.505 27.7349 179.467 27.3257 180.543 27.3257C181.824 27.3257 182.879 27.7828 183.708 28.6996C184.551 29.6085 184.971 30.7566 184.971 32.1439C184.971 33.4993 184.553 34.6287 183.719 35.5323C182.89 36.4306 181.845 36.8771 180.583 36.8771C179.493 36.8771 178.518 36.4545 177.657 35.6067V41.5332ZM182.77 32.1519C182.77 31.2855 182.528 30.5812 182.045 30.0364C181.553 29.4863 180.936 29.2099 180.19 29.2099C179.4 29.2099 178.76 29.4757 178.268 30.0072C177.776 30.5387 177.532 31.2376 177.532 32.104C177.532 32.9518 177.776 33.6507 178.268 34.2009C178.752 34.7404 179.39 35.0088 180.179 35.0088C180.926 35.0088 181.54 34.7377 182.023 34.1929C182.523 33.6481 182.77 32.9677 182.77 32.1519Z" fill="#003D92"/>
<path d="M185.433 32.0297C185.433 30.7248 185.914 29.6139 186.876 28.697C187.838 27.7828 189.01 27.3231 190.394 27.3231C191.784 27.3231 192.962 27.7828 193.932 28.705C194.888 29.6272 195.364 30.7593 195.364 32.1014C195.364 33.4568 194.883 34.5916 193.921 35.5085C192.951 36.4174 191.763 36.8718 190.354 36.8718C188.959 36.8718 187.79 36.4067 186.846 35.4792C185.906 34.5677 185.433 33.4169 185.433 32.0297ZM187.633 32.0669C187.633 32.9705 187.883 33.6853 188.38 34.2115C188.89 34.7431 189.563 35.0088 190.397 35.0088C191.239 35.0088 191.909 34.7457 192.414 34.2195C192.916 33.6933 193.169 32.9917 193.169 32.112C193.169 31.2324 192.916 30.5308 192.414 30.0046C191.904 29.4731 191.231 29.2073 190.397 29.2073C189.576 29.2073 188.909 29.4731 188.399 30.0046C187.886 30.5388 187.633 31.2271 187.633 32.0669Z" fill="#003D92"/>
<path d="M196.271 27.5755H198.421V28.3834C198.817 27.9821 199.168 27.7057 199.473 27.5569C199.784 27.4027 200.156 27.3257 200.581 27.3257C201.147 27.3257 201.74 27.5064 202.359 27.8652L201.373 29.776C200.967 29.4916 200.568 29.3481 200.177 29.3481C199.005 29.3481 198.418 30.2092 198.418 31.9286V36.614H196.268V27.5755H196.271Z" fill="#003D92"/>
<path d="M208.947 27.5755H211.108V36.614H208.947V35.6679C208.062 36.4732 207.108 36.8745 206.09 36.8745C204.804 36.8745 203.739 36.4227 202.899 35.5191C202.064 34.5969 201.647 33.4462 201.647 32.0669C201.647 30.7115 202.064 29.582 202.899 28.6784C203.733 27.7749 204.778 27.3231 206.035 27.3231C207.119 27.3231 208.089 27.7562 208.95 28.6226V27.5755H208.947ZM203.845 32.0669C203.845 32.9332 204.084 33.6375 204.562 34.1823C205.054 34.7324 205.671 35.0088 206.417 35.0088C207.215 35.0088 207.858 34.7431 208.349 34.2115C208.841 33.6614 209.086 32.9625 209.086 32.1147C209.086 31.2669 208.841 30.568 208.349 30.0179C207.858 29.4784 207.223 29.21 206.439 29.21C205.7 29.21 205.081 29.481 204.584 30.0258C204.089 30.576 203.845 31.2563 203.845 32.0669Z" fill="#003D92"/>
<path d="M215.062 29.5263V36.6167H212.912V29.5263H211.996V27.5783H212.912V24.2642H215.062V27.5783H216.734V29.5263H215.062Z" fill="#003D92"/>
<path d="M216.894 23.8177C216.894 23.4536 217.032 23.1374 217.305 22.8716C217.579 22.6058 217.909 22.473 218.289 22.473C218.677 22.473 219.009 22.6058 219.283 22.8716C219.556 23.132 219.695 23.451 219.695 23.8283C219.695 24.2057 219.556 24.5273 219.283 24.793C219.014 25.0588 218.687 25.1917 218.297 25.1917C217.906 25.1917 217.577 25.0588 217.303 24.793C217.032 24.5273 216.894 24.2004 216.894 23.8177ZM219.37 27.5755V36.614H217.22V27.5755H219.37Z" fill="#003D92"/>
<path d="M220.285 32.0297C220.285 30.7248 220.766 29.6139 221.728 28.697C222.69 27.7828 223.862 27.3231 225.246 27.3231C226.636 27.3231 227.814 27.7828 228.784 28.705C229.74 29.6272 230.216 30.7593 230.216 32.1014C230.216 33.4568 229.735 34.5916 228.773 35.5085C227.803 36.4174 226.615 36.8718 225.207 36.8718C223.811 36.8718 222.642 36.4067 221.699 35.4792C220.755 34.5677 220.285 33.4169 220.285 32.0297ZM222.483 32.0669C222.483 32.9705 222.732 33.6853 223.229 34.2115C223.74 34.7431 224.412 35.0088 225.246 35.0088C226.089 35.0088 226.759 34.7457 227.264 34.2195C227.766 33.6933 228.018 32.9917 228.018 32.112C228.018 31.2324 227.766 30.5308 227.264 30.0046C226.753 29.4731 226.081 29.2073 225.246 29.2073C224.425 29.2073 223.758 29.4731 223.248 30.0046C222.738 30.5388 222.483 31.2271 222.483 32.0669Z" fill="#003D92"/>
<path d="M231.12 27.5755H233.28V28.41C234.032 27.6872 234.88 27.3231 235.824 27.3231C236.908 27.3231 237.75 27.6553 238.356 28.317C238.88 28.8804 239.14 29.7999 239.14 31.0729V36.614H236.98V31.5646C236.98 30.6743 236.852 30.0577 236.597 29.7176C236.347 29.3721 235.895 29.1967 235.239 29.1967C234.524 29.1967 234.019 29.4252 233.719 29.8823C233.426 30.3341 233.28 31.1234 233.28 32.2476V36.6087H231.12V27.5755Z" fill="#003D92"/>
<path d="M58.8726 26.9086C58.8726 25.4921 59.133 24.1739 59.6565 22.9514C60.1774 21.7289 60.903 20.6632 61.8305 19.7543C62.758 18.8454 63.8662 18.1332 65.1551 17.6176C66.444 17.1047 67.8632 16.8469 69.4152 16.8469C70.9487 16.8469 72.3652 17.1047 73.6621 17.6176C74.959 18.1332 76.0752 18.8427 77.0106 19.7543C77.9461 20.6632 78.6743 21.7316 79.1978 22.9514C79.7187 24.1739 79.9818 25.4921 79.9818 26.9086C79.9818 28.325 79.7214 29.6432 79.1978 30.8631C78.6743 32.0855 77.9461 33.1512 77.0106 34.0601C76.0752 34.969 74.959 35.6813 73.6621 36.1968C72.3652 36.7098 70.9487 36.9676 69.4152 36.9676C67.8659 36.9676 66.444 36.7098 65.1551 36.1968C63.8662 35.6839 62.758 34.9717 61.8305 34.0601C60.903 33.1512 60.1774 32.0855 59.6565 30.8631C59.133 29.6406 58.8726 28.3224 58.8726 26.9086ZM64.0549 26.9086C64.0549 27.666 64.1984 28.3676 64.4854 29.0054C64.7724 29.6459 65.1604 30.2013 65.6494 30.6744C66.1384 31.1474 66.7071 31.5142 67.3556 31.7746C68.0041 32.0351 68.6924 32.1653 69.4152 32.1653C70.1408 32.1653 70.8264 32.0351 71.4749 31.7746C72.1233 31.5142 72.6974 31.1474 73.1943 30.6744C73.6913 30.204 74.082 29.6459 74.369 29.0054C74.656 28.3649 74.7995 27.666 74.7995 26.9086C74.7995 26.1511 74.656 25.4522 74.369 24.8117C74.082 24.1712 73.6913 23.6158 73.1943 23.1427C72.6974 22.6723 72.1233 22.3056 71.4749 22.0425C70.8264 21.782 70.1381 21.6518 69.4152 21.6518C68.6897 21.6518 68.0041 21.782 67.3556 22.0425C66.7071 22.3029 66.1384 22.6697 65.6494 23.1427C65.1604 23.6158 64.7724 24.1712 64.4854 24.8117C64.1984 25.4495 64.0549 26.1485 64.0549 26.9086Z" fill="#003D92"/>
<path d="M89.1212 21.5748V36.4387H84.1674V21.5748H80.0986V17.3784H93.1926V21.5748H89.1212Z" fill="#003D92"/>
<path d="M93.5889 26.9086C93.5889 25.4921 93.8493 24.1739 94.3729 22.9514C94.8937 21.7289 95.6193 20.6632 96.5468 19.7543C97.4743 18.8454 98.5825 18.1332 99.8714 17.6176C101.16 17.1047 102.58 16.8469 104.132 16.8469C105.665 16.8469 107.081 17.1047 108.378 17.6176C109.675 18.1332 110.791 18.8428 111.727 19.7543C112.662 20.6632 113.391 21.7316 113.914 22.9514C114.435 24.1739 114.698 25.4921 114.698 26.9086C114.698 28.3251 114.438 29.6432 113.914 30.8631C113.391 32.0856 112.662 33.1513 111.727 34.0602C110.791 34.9691 109.675 35.6813 108.378 36.1969C107.081 36.7098 105.665 36.9676 104.132 36.9676C102.582 36.9676 101.16 36.7098 99.8714 36.1969C98.5825 35.684 97.4743 34.9717 96.5468 34.0602C95.6193 33.1513 94.8937 32.0856 94.3729 30.8631C93.8493 29.6406 93.5889 28.3224 93.5889 26.9086ZM98.7685 26.9086C98.7685 27.666 98.912 28.3676 99.1991 29.0054C99.4861 29.6459 99.8741 30.2013 100.363 30.6744C100.852 31.1474 101.421 31.5142 102.069 31.7746C102.718 32.0351 103.403 32.1653 104.129 32.1653C104.854 32.1653 105.54 32.0351 106.189 31.7746C106.837 31.5142 107.411 31.1474 107.908 30.6744C108.405 30.204 108.796 29.6459 109.083 29.0054C109.37 28.3649 109.513 27.666 109.513 26.9086C109.513 26.1512 109.37 25.4522 109.083 24.8117C108.796 24.1713 108.405 23.6158 107.908 23.1428C107.411 22.6724 106.837 22.3056 106.189 22.0425C105.54 21.7821 104.852 21.6519 104.129 21.6519C103.403 21.6519 102.718 21.7821 102.069 22.0425C101.421 22.303 100.852 22.6697 100.363 23.1428C99.8741 23.6158 99.4861 24.1713 99.1991 24.8117C98.912 25.4496 98.7685 26.1485 98.7685 26.9086Z" fill="#003D92"/>
<path d="M140.251 17.3784V36.4387H135.297V17.3784H140.251Z" fill="#003D92"/>
<path d="M133.82 35.7664L126.107 26.401L133.243 17.8807V17.3784H127.548L121.507 24.4742V17.3784H116.553V36.4361H121.507V29.1915L127.952 36.4361H133.82V35.7664Z" fill="#003D92"/>
</svg>
