<svg width="40" height="41" viewBox="0 0 40 41" fill="none" xmlns="http://www.w3.org/2000/svg">
<path d="M19.1793 0.609375L1.21191 9.69609V30.2321L20.0297 40.0033L38.7877 30.2321V10.5018L19.1793 0.609375Z" stroke="black" stroke-miterlimit="10" stroke-linecap="round"/>
<path d="M13.5572 15.1484C12.9556 15.1484 12.4902 15.6757 12.5649 16.2725L14.1337 28.818C14.1963 29.3184 14.6217 29.6939 15.126 29.6939H24.2738C24.7783 29.6939 25.2037 29.3182 25.2661 28.8176L26.8297 16.2721C26.9041 15.6754 26.4388 15.1484 25.8374 15.1484H13.5572Z" fill="#FFED00" stroke="black" stroke-miterlimit="10"/>
<path d="M17.5757 19.3906L17.5757 25.4512" stroke="black" stroke-linecap="round"/>
<path d="M22.4243 19.3906L22.4243 25.4512" stroke="black" stroke-linecap="round"/>
<path d="M20 20L20 24.2424" stroke="black" stroke-linecap="round"/>
<path d="M12.1211 14.8494V14.0313C12.1211 13.479 12.5688 13.0312 13.1211 13.0312H26.8787C27.431 13.0312 27.8787 13.479 27.8787 14.0313V14.8494" stroke="black" stroke-miterlimit="10"/>
<path d="M16.6665 12.7277V12.5156C16.6665 11.9633 17.1142 11.5156 17.6665 11.5156H21.7271C22.2794 11.5156 22.7271 11.9633 22.7271 12.5156V12.7277" stroke="black" stroke-miterlimit="10"/>
</svg>
