<svg width="50" height="50" viewBox="0 0 50 50" fill="none" xmlns="http://www.w3.org/2000/svg">
<rect width="50" height="50" rx="25" fill="#DC2F34"/>
<path d="M36 31.9611V24.4927C36 23.7734 35.9994 23.4135 35.91 23.0788C35.8309 22.7822 35.7009 22.5015 35.525 22.2478C35.3266 21.9616 35.0506 21.7242 34.4977 21.2506L27.8977 15.5967C26.8711 14.7173 26.3578 14.2778 25.7802 14.1105C25.2711 13.9632 24.7286 13.9632 24.2196 14.1105C23.6423 14.2777 23.1298 14.7167 22.1047 15.5948L15.5026 21.2506C14.9496 21.7243 14.6738 21.9616 14.4753 22.2478C14.2995 22.5015 14.1685 22.7822 14.0893 23.0788C14 23.4135 14 23.7734 14 24.4927V31.9611C14 33.2156 14 33.8426 14.2093 34.3373C14.4884 34.997 15.0234 35.5218 15.6973 35.7951C16.2026 36 16.8433 36 18.1246 36C19.406 36 20.0474 36 20.5527 35.7951C21.2266 35.5218 21.7614 34.9972 22.0405 34.3375C22.2499 33.8427 22.25 33.2155 22.25 31.961V30.6148C22.25 29.1279 23.4812 27.9225 25 27.9225C26.5188 27.9225 27.75 29.1279 27.75 30.6148V31.961C27.75 33.2155 27.75 33.8427 27.9593 34.3375C28.2384 34.9972 28.7734 35.5218 29.4473 35.7951C29.9526 36 30.5933 36 31.8746 36C33.156 36 33.7974 36 34.3027 35.7951C34.9766 35.5218 35.5114 34.997 35.7905 34.3373C35.9999 33.8426 36 33.2156 36 31.9611Z" fill="white"/>
</svg>
