<svg width="40" height="40" viewBox="0 0 40 40" fill="none" xmlns="http://www.w3.org/2000/svg">
<ellipse cx="15.7801" cy="16.968" rx="4.84848" ry="7.27273" fill="#FFED00"/>
<path d="M11.5376 32.4236C1.73606 27.8729 2.44669 16.6661 3.35525 10.6055C-1.79532 19.6964 -0.582229 34.2233 14.5678 38.4843C24.2649 41.2115 30.7295 36.7671 33.3558 33.9388C29.8204 34.8479 20.0224 36.363 11.5376 32.4236Z" fill="#FFED00"/>
<path d="M19.7255 25.4535C19.7255 25.4535 13.3558 24.2414 13.3558 21.2111C13.3558 21.2111 11.5377 21.2111 11.5377 19.3929C11.5377 17.5747 12.7498 17.5747 12.7498 17.5747C12.7498 17.5747 12.2407 9.08984 20.071 9.08984C27.9013 9.08984 27.4225 17.2717 27.4225 17.2717C27.4225 17.2717 28.5074 17.5747 28.5074 18.7868C28.5074 19.9989 27.9013 21.2111 26.6892 21.2111C26.6892 21.2111 24.2771 25.4535 19.7255 25.4535Z" stroke="black" stroke-miterlimit="10"/>
<path d="M6.99218 34.5446C6.99218 34.5446 6.43462 26.6052 12.3195 26.6355C18.2043 26.6658 16.9922 28.484 20.0225 28.484C23.0528 28.484 26.0831 25.9991 28.5073 26.6355C30.9316 27.2719 32.5377 28.484 32.6467 34.5446" stroke="black" stroke-miterlimit="10"/>
<path d="M20.0225 39.3933C30.7335 39.3933 39.4165 30.7104 39.4165 19.9994C39.4165 9.28843 30.7335 0.605469 20.0225 0.605469C9.31156 0.605469 0.628601 9.28843 0.628601 19.9994C0.628601 30.7104 9.31156 39.3933 20.0225 39.3933Z" stroke="black" stroke-miterlimit="10"/>
</svg>
