<svg width="40" height="41" viewBox="0 0 40 41" fill="none" xmlns="http://www.w3.org/2000/svg">
<path d="M11.8182 26.3638H18.4848C18.3838 25.8587 18.803 24.4849 19.3939 22.1213C20 19.6971 22.8283 18.384 24.5454 17.8789H18.1818H12.8182C12.2659 17.8789 11.8182 18.3266 11.8182 18.8789V26.3638Z" fill="#FFED00"/>
<path d="M18.1818 26.6668C15.0316 26.6668 11.0242 26.6668 11.0242 26.6668C11.0242 26.6668 9.39392 26.6668 9.39392 24.8486C9.39392 23.3806 9.39392 16.4798 9.39392 13.8763C9.39392 13.324 9.84164 12.8789 10.3939 12.8789H17.5333L19.4014 14.8411C19.5901 15.0394 19.8519 15.1516 20.1256 15.1516H28.3939C28.9462 15.1516 29.3939 15.5993 29.3939 16.1516C29.3939 16.5819 29.3939 17.0761 29.3939 17.4728" stroke="black" stroke-miterlimit="10" stroke-linecap="round"/>
<path d="M11.8182 15.1523H16.0606" stroke="black" stroke-miterlimit="10"/>
<path d="M19.1795 0.605469L1.2121 9.69218V30.2282L20.0299 39.9994L38.7879 30.2282V10.4979L19.1795 0.605469Z" stroke="black" stroke-miterlimit="10" stroke-linecap="round"/>
<path d="M18.5909 23.9395C18.5909 24.2157 18.8147 24.4395 19.0909 24.4395C19.367 24.4395 19.5909 24.2157 19.5909 23.9395H18.5909ZM19.8663 26.4994C19.6065 26.4058 19.32 26.5406 19.2265 26.8005L17.7023 31.0344C17.6087 31.2943 17.7435 31.5807 18.0033 31.6743C18.2632 31.7678 18.5496 31.633 18.6431 31.3732L19.998 27.6096L23.7616 28.9645C24.0214 29.058 24.3078 28.9232 24.4014 28.6634C24.4949 28.4036 24.3601 28.1171 24.1003 28.0236L19.8663 26.4994ZM19.5909 23.9395C19.5909 20.8702 22.0822 18.3789 25.1515 18.3789V17.3789C21.5299 17.3789 18.5909 20.3179 18.5909 23.9395H19.5909ZM25.1515 18.3789C28.2208 18.3789 30.7121 20.8702 30.7121 23.9395H31.7121C31.7121 20.3179 28.7731 17.3789 25.1515 17.3789V18.3789ZM30.7121 23.9395C30.7121 27.0088 28.2208 29.5001 25.1515 29.5001V30.5001C28.7731 30.5001 31.7121 27.5611 31.7121 23.9395H30.7121ZM25.1515 29.5001C22.8571 29.5001 21.0125 28.5911 20.1494 26.7569L19.2445 27.1827C20.3208 29.4698 22.5974 30.5001 25.1515 30.5001V29.5001Z" fill="black"/>
<circle cx="24.8485" cy="24.2395" r="0.712121" stroke="#123E8C"/>
<path d="M22.5593 21.7383L24.1647 23.5548" stroke="#123E8C" stroke-linecap="round"/>
<path d="M29.3192 21.5967C29.5322 21.4211 29.5626 21.1059 29.3869 20.8929C29.2112 20.6798 28.8961 20.6495 28.683 20.8252L29.3192 21.5967ZM25.7427 23.2494L25.3569 23.5675L25.993 24.339L26.3788 24.021L25.7427 23.2494ZM28.683 20.8252L25.7427 23.2494L26.3788 24.021L29.3192 21.5967L28.683 20.8252Z" fill="#123E8C"/>
<line x1="17.4698" y1="14.4375" x2="17.4698" y2="15.2557" stroke="black" stroke-linecap="round"/>
<line x1="17.4698" y1="25.3477" x2="17.4698" y2="26.1658" stroke="black" stroke-linecap="round"/>
<line x1="0.5" y1="-0.5" x2="1.31818" y2="-0.5" transform="matrix(-1 8.74228e-08 8.74228e-08 1 23.3335 20.9062)" stroke="black" stroke-linecap="round"/>
</svg>
